<svg id="icon" height="512" viewBox="0 0 128 128" width="512" xmlns="http://www.w3.org/2000/svg"><g fill="#1fa1c7"><path d="m1 35.141a1 1 0 0 1 -1-1v-13.311a1 1 0 0 1 1-1h14.879a1 1 0 0 1 0 2h-13.879v12.311a1 1 0 0 1 -1 1z"/><path d="m15.879 108.17h-14.879a1 1 0 0 1 -1-1v-13.311a1 1 0 0 1 2 0v12.311h13.879a1 1 0 0 1 0 2z"/><path d="m127 35.141a1 1 0 0 1 -1-1v-12.311h-13.879a1 1 0 0 1 0-2h14.879a1 1 0 0 1 1 1v13.311a1 1 0 0 1 -1 1z"/><path d="m127 108.17h-14.879a1 1 0 0 1 0-2h13.879v-12.311a1 1 0 1 1 2 0v13.311a1 1 0 0 1 -1 1z"/></g><path d="m8.943 28.912h110.115v70.176h-110.115z" fill="#f0f5f9"/><g fill="#1fa1c7"><path d="m119.058 100.088h-110.116a1 1 0 0 1 -1-1v-70.176a1 1 0 0 1 1-1h110.116a1 1 0 0 1 1 1v70.176a1 1 0 0 1 -1 1zm-109.115-2h108.115v-68.176h-108.116z"/><path d="m15.256 35.784h4.925v56.432h-4.925z"/><path d="m26.192 35.784h1.805v56.432h-1.805z"/><path d="m35.016 35.784h2.911v56.432h-2.911z"/><path d="m42.415 35.784h6.868v56.432h-6.868z"/><path d="m53.967 35.784h2.517v56.432h-2.517z"/><path d="m62.573 35.784h4.059v56.432h-4.059z"/><path d="m71.516 35.784h4.925v56.432h-4.925z"/><path d="m82.453 35.784h1.805v56.432h-1.805z"/><path d="m91.277 35.784h2.911v56.432h-2.911z"/><path d="m98.675 35.784h6.868v56.432h-6.868z"/><path d="m110.228 35.784h2.517v56.432h-2.517z"/></g></svg>