<?xml version="1.0"?>
<svg xmlns="http://www.w3.org/2000/svg" viewBox="0 0 512 512" width="512" height="512"><g id="Outline"><path d="M112,456H400a8,8,0,0,0,8-8V384a32.036,32.036,0,0,0-32-32h-8V288a24.028,24.028,0,0,0-24-24h-8V246.863A27.363,27.363,0,0,0,356,220.8c0-11.85-16.146-40.378-21.1-48.839a8,8,0,0,0-13.81,0C316.146,180.422,300,208.95,300,220.8a27.363,27.363,0,0,0,20,26.063V264H264V246.863A27.363,27.363,0,0,0,284,220.8c0-11.85-16.146-40.378-21.1-48.839a8,8,0,0,0-13.81,0C244.146,180.422,228,208.95,228,220.8a27.363,27.363,0,0,0,20,26.063V264H192V246.863A27.363,27.363,0,0,0,212,220.8c0-11.85-16.146-40.378-21.095-48.839a8,8,0,0,0-13.81,0C172.146,180.422,156,208.95,156,220.8a27.363,27.363,0,0,0,20,26.063V264h-8a24.028,24.028,0,0,0-24,24v64h-8a32.036,32.036,0,0,0-32,32v64A8,8,0,0,0,112,456ZM316,220.8c0-3.488,5.049-15.2,12-28.344,6.951,13.147,12,24.856,12,28.344,0,6.176-5.383,11.2-12,11.2S316,226.976,316,220.8Zm-72,0c0-3.488,5.049-15.2,12-28.344,6.951,13.147,12,24.856,12,28.344,0,6.176-5.383,11.2-12,11.2S244,226.976,244,220.8Zm-72,0c0-3.488,5.049-15.2,12-28.344,6.951,13.147,12,24.856,12,28.344,0,6.176-5.383,11.2-12,11.2S172,226.976,172,220.8ZM120,440V400.94c3.895,1.086,6.438,3.029,9.524,5.4,5.6,4.3,12.563,9.657,27.278,9.657,14.177,0,22.391-4.838,29.639-9.106,6.539-3.852,11.7-6.894,21.52-6.894s15.006,3.044,21.565,6.9c7.264,4.267,15.495,9.1,29.674,9.1,14.724,0,21.676-5.358,27.262-9.664,4.773-3.678,8.222-6.336,17.494-6.336,9.29,0,12.755,2.661,17.551,6.345,5.6,4.3,12.571,9.655,27.294,9.655,14.183,0,22.4-4.837,29.655-9.1,4.51-2.655,8.367-4.924,13.544-6.079V440Zm48-160H344a8.009,8.009,0,0,1,8,8v5.8c-6.364,1.508-9.9,4.694-12.666,7.2-2.886,2.615-4.335,3.928-9.922,3.928-6.395,0-9.643-2.014-14.139-4.8-5.175-3.208-11.616-7.2-22.567-7.2s-17.4,3.989-22.585,7.194c-4.517,2.79-7.779,4.806-14.175,4.806-6.379,0-9.62-2.012-14.106-4.8-5.17-3.209-11.6-7.2-22.546-7.2-11.749,0-16.9,4.664-20.664,8.069-2.892,2.617-4.343,3.931-9.924,3.931-6.385,0-9.638-2.014-14.14-4.8-3.768-2.333-8.216-5.073-14.566-6.4V288A8.009,8.009,0,0,1,168,280Zm-8,30.382a41.248,41.248,0,0,1,6.144,3.354c5.179,3.206,11.626,7.2,22.562,7.2,11.746,0,16.9-4.663,20.661-8.069,2.892-2.618,4.344-3.931,9.927-3.931,6.379,0,9.621,2.011,14.107,4.8,5.17,3.209,11.6,7.2,22.545,7.2s17.4-3.99,22.584-7.194c4.517-2.791,7.781-4.806,14.176-4.806s9.643,2.012,14.138,4.8c5.176,3.208,11.616,7.2,22.568,7.2,11.759,0,16.907-4.665,20.666-8.073.7-.633,1.313-1.188,1.922-1.668V352H160ZM136,368H376a16.019,16.019,0,0,1,16,16v.572c-9.5,1.395-15.892,5.14-21.659,8.533C363.8,396.958,358.626,400,348.8,400c-9.287,0-12.752-2.661-17.548-6.345-5.6-4.3-12.572-9.655-27.3-9.655s-21.675,5.358-27.261,9.663c-4.773,3.679-8.221,6.337-17.5,6.337-9.826,0-15.009-3.044-21.569-6.9-7.263-4.266-15.494-9.1-29.67-9.1s-22.392,4.838-29.64,9.106c-6.539,3.852-11.7,6.894-21.519,6.894-9.276,0-12.736-2.66-17.526-6.343-4.467-3.434-9.82-7.531-19.276-9.047V384A16.019,16.019,0,0,1,136,368Z"/><path d="M472,48H448V40a24,24,0,0,0-48,0v8H336V40a24,24,0,0,0-48,0v8H224V40a24,24,0,0,0-48,0v8H112V40a24,24,0,0,0-48,0v8H40A24.028,24.028,0,0,0,16,72V472a24.028,24.028,0,0,0,24,24H472a24.028,24.028,0,0,0,24-24V72A24.028,24.028,0,0,0,472,48Zm-56-8a8,8,0,0,1,16,0V72a8,8,0,0,1-16,0ZM304,40a8,8,0,0,1,16,0V72a8,8,0,0,1-16,0ZM192,40a8,8,0,0,1,16,0V72a8,8,0,0,1-16,0ZM80,40a8,8,0,0,1,16,0V72a8,8,0,0,1-16,0ZM480,472a8.009,8.009,0,0,1-8,8H40a8.009,8.009,0,0,1-8-8V144H480Zm0-344H32V72a8.009,8.009,0,0,1,8-8H64v8a24,24,0,0,0,48,0V64h64v8a24,24,0,0,0,48,0V64h64v8a24,24,0,0,0,48,0V64h64v8a24,24,0,0,0,48,0V64h24a8.009,8.009,0,0,1,8,8Z"/></g></svg>
