<?xml version="1.0" encoding="iso-8859-1"?>
<!-- Generator: Adobe Illustrator 18.0.0, SVG Export Plug-In . SVG Version: 6.00 Build 0)  -->
<!DOCTYPE svg PUBLIC "-//W3C//DTD SVG 1.1//EN" "http://www.w3.org/Graphics/SVG/1.1/DTD/svg11.dtd">
<svg version="1.1" id="Capa_1" xmlns="http://www.w3.org/2000/svg" xmlns:xlink="http://www.w3.org/1999/xlink" x="0px" y="0px"
	 viewBox="0 0 490 490" style="enable-background:new 0 0 490 490;" xml:space="preserve">
<g>
	<path d="M425.447,229.162V73.95c0-10.315-8.358-18.674-18.674-18.674h-14.63C391.124,24.683,325.641,0,245,0
		C164.357,0,98.876,24.683,97.856,55.276H83.229c-10.314,0-18.676,8.358-18.676,18.674v155.212
		c-21.039,1.798-37.559,19.436-37.559,40.939v165.854H78.78v20.213c0,18.685,15.148,33.832,33.834,33.832
		c18.686,0,33.834-15.147,33.834-33.832v-20.213h197.105v20.213c0,18.685,15.148,33.832,33.832,33.832
		c18.688,0,33.834-15.147,33.834-33.832v-20.213h51.786V270.102C463.006,248.598,446.487,230.961,425.447,229.162z M95.959,366.554
		c-16.283,0-29.48-13.198-29.48-29.48c0-16.281,13.197-29.48,29.48-29.48c16.281,0,29.479,13.199,29.479,29.48
		C125.438,353.355,112.24,366.554,95.959,366.554z M310.607,371.62H179.393c-6.142,0-11.12-4.978-11.12-11.12
		s4.979-11.12,11.12-11.12h131.215c6.142,0,11.12,4.978,11.12,11.12S316.749,371.62,310.607,371.62z M310.607,331.12H179.393
		c-6.142,0-11.12-4.978-11.12-11.12s4.979-11.12,11.12-11.12h131.215c6.142,0,11.12,4.978,11.12,11.12
		S316.749,331.12,310.607,331.12z M356.42,192.482c0,6.914-5.602,12.518-12.518,12.518H146.1c-6.912,0-12.52-5.604-12.52-12.518V94
		c0-6.914,5.607-12.518,12.52-12.518h197.803c6.916,0,12.518,5.604,12.518,12.518V192.482z M394.043,366.554
		c-16.283,0-29.48-13.198-29.48-29.48c0-16.281,13.197-29.48,29.48-29.48c16.281,0,29.478,13.199,29.478,29.48
		C423.522,353.355,410.324,366.554,394.043,366.554z"/>
</g>
<g>
</g>
<g>
</g>
<g>
</g>
<g>
</g>
<g>
</g>
<g>
</g>
<g>
</g>
<g>
</g>
<g>
</g>
<g>
</g>
<g>
</g>
<g>
</g>
<g>
</g>
<g>
</g>
<g>
</g>
</svg>
