<svg id="Icons" height="512" viewBox="0 0 74 74" width="512" xmlns="http://www.w3.org/2000/svg"><path d="m56 33a1 1 0 0 1 -1-1v-2.9a1 1 0 1 1 2 0v2.9a1 1 0 0 1 -1 1z"/><path d="m53 72h-32a4 4 0 0 1 -4-4v-62a4 4 0 0 1 4-4h32a4 4 0 0 1 4 4v16.1a1 1 0 0 1 -2 0v-16.1a2 2 0 0 0 -2-2h-32a2 2 0 0 0 -2 2v62a2 2 0 0 0 2 2h32a2 2 0 0 0 2-2v-19.03a1 1 0 0 1 2 0v19.03a4 4 0 0 1 -4 4z"/><path d="m56 42.97a1 1 0 0 1 -1-1v-2.97a1 1 0 0 1 2 0v2.97a1 1 0 0 1 -1 1z"/><path d="m56 12.69h-38a1 1 0 0 1 0-2h38a1 1 0 0 1 0 2z"/><path d="m56 61.31h-38a1 1 0 0 1 0-2h38a1 1 0 0 1 0 2z"/><path d="m42.531 8.75h-6.625a1 1 0 0 1 0-2h6.625a1 1 0 0 1 0 2z"/><path d="m31.859 8.75h-.39a1 1 0 0 1 0-2h.39a1 1 0 0 1 0 2z"/><path d="m37 68.9a3.216 3.216 0 1 1 3.216-3.216 3.22 3.22 0 0 1 -3.216 3.216zm0-4.431a1.216 1.216 0 1 0 1.216 1.215 1.217 1.217 0 0 0 -1.216-1.213z"/><path d="m37 37a4.173 4.173 0 0 1 -4.407-3.878 4.172 4.172 0 0 1 4.407-3.878 4.172 4.172 0 0 1 4.407 3.878 1 1 0 0 1 -2 0 2.195 2.195 0 0 0 -2.407-1.878 2.195 2.195 0 0 0 -2.407 1.878 2.195 2.195 0 0 0 2.407 1.878 1 1 0 0 1 0 2z"/><path d="m37 42.756a4.172 4.172 0 0 1 -4.407-3.878 1 1 0 0 1 2 0 2.195 2.195 0 0 0 2.407 1.878 2.195 2.195 0 0 0 2.407-1.878 2.195 2.195 0 0 0 -2.407-1.878 1 1 0 0 1 0-2 4.173 4.173 0 0 1 4.407 3.878 4.172 4.172 0 0 1 -4.407 3.878z"/><path d="m37 43.9a1 1 0 0 1 -1-1v-1.145a1 1 0 1 1 2 0v1.145a1 1 0 0 1 -1 1z"/><path d="m37 31.239a1 1 0 0 1 -1-1v-1.139a1 1 0 1 1 2 0v1.139a1 1 0 0 1 -1 1z"/><path d="m37 48a12 12 0 1 1 12-12 12.013 12.013 0 0 1 -12 12zm0-22a10 10 0 1 0 10 10 10.011 10.011 0 0 0 -10-10z"/></svg>